<svg width="26" height="26" viewBox="0 0 26 26" fill="none" xmlns="http://www.w3.org/2000/svg">
<path d="M22.1217 11.0284L13.7692 2.49171C13.6685 2.39017 13.5486 2.30958 13.4166 2.25458C13.2846 2.19958 13.143 2.17126 13 2.17126C12.857 2.17126 12.7154 2.19958 12.5834 2.25458C12.4514 2.30958 12.3315 2.39017 12.2308 2.49171L3.87834 11.0392C3.67623 11.243 3.51661 11.4848 3.40874 11.7508C3.30088 12.0167 3.24692 12.3014 3.25 12.5884V21.6667C3.24916 22.2213 3.46101 22.7551 3.84191 23.1581C4.22281 23.5612 4.74377 23.8029 5.2975 23.8334H20.7025C21.2562 23.8029 21.7772 23.5612 22.1581 23.1581C22.539 22.7551 22.7508 22.2213 22.75 21.6667V12.5884C22.7509 12.0066 22.5256 11.4472 22.1217 11.0284ZM10.8333 21.6667V15.1667H15.1667V21.6667H10.8333ZM20.5833 21.6667H17.3333V14.0834C17.3333 13.7961 17.2192 13.5205 17.016 13.3173C16.8129 13.1142 16.5373 13 16.25 13H9.75C9.46268 13 9.18713 13.1142 8.98397 13.3173C8.78081 13.5205 8.66667 13.7961 8.66667 14.0834V21.6667H5.41667V12.545L13 4.79921L20.5833 12.5884V21.6667Z" fill="white"/>
</svg>
