<svg width="28" height="28" viewBox="0 0 28 28" fill="none" xmlns="http://www.w3.org/2000/svg">
<g clip-path="url(#clip0_46_160)">
<path d="M8.16665 16.3333C8.78549 16.3333 9.37898 16.0875 9.81656 15.6499C10.2541 15.2123 10.5 14.6188 10.5 14C10.5 13.3811 10.2541 12.7876 9.81656 12.35C9.37898 11.9125 8.78549 11.6666 8.16665 11.6666C7.54781 11.6666 6.95432 11.9125 6.51673 12.35C6.07915 12.7876 5.83331 13.3811 5.83331 14C5.83331 14.6188 6.07915 15.2123 6.51673 15.6499C6.95432 16.0875 7.54781 16.3333 8.16665 16.3333Z" fill="white"/>
<path d="M16.3334 14C16.3334 14.6188 16.0875 15.2123 15.6499 15.6499C15.2124 16.0875 14.6189 16.3333 14 16.3333C13.3812 16.3333 12.7877 16.0875 12.3501 15.6499C11.9125 15.2123 11.6667 14.6188 11.6667 14C11.6667 13.3811 11.9125 12.7876 12.3501 12.35C12.7877 11.9125 13.3812 11.6666 14 11.6666C14.6189 11.6666 15.2124 11.9125 15.6499 12.35C16.0875 12.7876 16.3334 13.3811 16.3334 14Z" fill="white"/>
<path d="M19.8333 16.3333C20.4522 16.3333 21.0457 16.0875 21.4832 15.6499C21.9208 15.2123 22.1667 14.6188 22.1667 14C22.1667 13.3811 21.9208 12.7876 21.4832 12.35C21.0457 11.9125 20.4522 11.6666 19.8333 11.6666C19.2145 11.6666 18.621 11.9125 18.1834 12.35C17.7458 12.7876 17.5 13.3811 17.5 14C17.5 14.6188 17.7458 15.2123 18.1834 15.6499C18.621 16.0875 19.2145 16.3333 19.8333 16.3333Z" fill="white"/>
<path fill-rule="evenodd" clip-rule="evenodd" d="M28 14C28 21.7315 21.7315 28 14 28C6.2685 28 0 21.7315 0 14C0 6.2685 6.2685 0 14 0C21.7315 0 28 6.2685 28 14ZM25.6667 14C25.6667 20.4435 20.4435 25.6667 14 25.6667C7.5565 25.6667 2.33333 20.4435 2.33333 14C2.33333 7.5565 7.5565 2.33333 14 2.33333C20.4435 2.33333 25.6667 7.5565 25.6667 14Z" fill="white"/>
</g>
<defs>
<clipPath id="clip0_46_160">
<rect width="28" height="28" fill="white"/>
</clipPath>
</defs>
</svg>
