<svg width="31" height="31" viewBox="0 0 31 31" fill="none" xmlns="http://www.w3.org/2000/svg">
<path d="M6.78125 7.42708C6.43868 7.42708 6.11014 7.56317 5.8679 7.8054C5.62567 8.04764 5.48958 8.37618 5.48958 8.71875V11.2969C5.49346 11.3098 5.50896 11.3447 5.55933 11.4028C5.64975 11.5087 5.80863 11.6302 6.014 11.7309C7.09513 12.2605 8.07292 13.3636 8.07292 15.1771C8.07292 16.9906 7.09513 18.0924 6.014 18.6233C5.84283 18.7025 5.68848 18.8139 5.55933 18.9513C5.52969 18.982 5.50603 19.0179 5.48958 19.0572V21.6354C5.48958 21.978 5.62567 22.3065 5.8679 22.5488C6.11014 22.791 6.43868 22.9271 6.78125 22.9271H18.4063V20.3438C18.4063 20.0012 18.5423 19.6726 18.7846 19.4304C19.0268 19.1882 19.3553 19.0521 19.6979 19.0521C20.0405 19.0521 20.369 19.1882 20.6113 19.4304C20.8535 19.6726 20.9896 20.0012 20.9896 20.3438V22.9271H24.8646C25.2072 22.9271 25.5357 22.791 25.7779 22.5488C26.0202 22.3065 26.1563 21.978 26.1563 21.6354V19.0572C26.1398 19.0179 26.1161 18.982 26.0865 18.9513C25.9574 18.8138 25.803 18.7025 25.6318 18.6233C24.552 18.0937 23.5729 16.9906 23.5729 15.1771C23.5729 13.3636 24.5507 12.2618 25.6331 11.7309C25.8372 11.6302 25.9948 11.5087 26.0865 11.4028C26.1161 11.3722 26.1398 11.3362 26.1563 11.2969V8.71875C26.1563 8.37618 26.0202 8.04764 25.7779 7.8054C25.5357 7.56317 25.2072 7.42708 24.8646 7.42708H20.9896V10.0104C20.9896 10.353 20.8535 10.6815 20.6113 10.9238C20.369 11.166 20.0405 11.3021 19.6979 11.3021C19.3553 11.3021 19.0268 11.166 18.7846 10.9238C18.5423 10.6815 18.4063 10.353 18.4063 10.0104V7.42708H6.78125ZM2.90625 8.71875C2.90625 7.69104 3.31451 6.70541 4.04121 5.97871C4.76791 5.25201 5.75354 4.84375 6.78125 4.84375H24.8646C25.8923 4.84375 26.8779 5.25201 27.6046 5.97871C28.3313 6.70541 28.7396 7.69104 28.7396 8.71875V11.3021C28.7396 12.781 27.5383 13.6723 26.7711 14.0495C26.6006 14.1278 26.4543 14.2505 26.3474 14.4047C26.2544 14.5442 26.1563 14.7767 26.1563 15.1771C26.1563 15.5775 26.2544 15.81 26.3474 15.9495C26.4543 16.1037 26.6006 16.2263 26.7711 16.3047C27.5383 16.6819 28.7396 17.5731 28.7396 19.0521V21.6354C28.7396 22.6631 28.3313 23.6488 27.6046 24.3755C26.8779 25.1022 25.8923 25.5104 24.8646 25.5104H6.78125C5.75354 25.5104 4.76791 25.1022 4.04121 24.3755C3.31451 23.6488 2.90625 22.6631 2.90625 21.6354V19.0521C2.90625 17.5731 4.1075 16.6819 4.87475 16.3047C5.0452 16.2263 5.1915 16.1037 5.29842 15.9495C5.39142 15.81 5.48958 15.5775 5.48958 15.1771C5.48958 14.7767 5.39142 14.5442 5.29842 14.4047C5.1915 14.2505 5.0452 14.1278 4.87475 14.0495C4.1075 13.6723 2.90625 12.781 2.90625 11.3021V8.71875ZM19.6979 12.5938C20.0405 12.5938 20.369 12.7298 20.6113 12.9721C20.8535 13.2143 20.9896 13.5428 20.9896 13.8854V16.4688C20.9896 16.8113 20.8535 17.1399 20.6113 17.3821C20.369 17.6243 20.0405 17.7604 19.6979 17.7604C19.3553 17.7604 19.0268 17.6243 18.7846 17.3821C18.5423 17.1399 18.4063 16.8113 18.4063 16.4688V13.8854C18.4063 13.5428 18.5423 13.2143 18.7846 12.9721C19.0268 12.7298 19.3553 12.5938 19.6979 12.5938Z" fill="white"/>
</svg>
